<svg width="30" height="30" viewBox="0 0 30 30" fill="none" xmlns="http://www.w3.org/2000/svg">
<path d="M23.9219 2C26.1741 2.00016 27.9998 3.82591 28 6.07812V23.9219C27.9999 24.662 27.8007 25.3548 27.4561 25.9531L21.6328 19.624L27.5 13.7998H23.8652L18.8818 18.7402V6H16V28H6.07812C3.82591 27.9998 2.00016 26.1741 2 23.9219V6.07812C2.00017 3.82591 3.82591 2.00017 6.07812 2H23.9219ZM25.25 27.75C25.25 27.75 25.2951 27.7445 25.3701 27.7344C24.92 27.9055 24.432 28 23.9219 28H18.8818V20.4561L25.25 27.75Z" fill="#90C5FF"/>
</svg>
